<svg width="68" height="68" viewBox="0 0 68 68" fill="none" xmlns="http://www.w3.org/2000/svg">
<rect x="67.9414" y="34.0588" width="48" height="48" rx="24" transform="rotate(135 67.9414 34.0588)" fill="#F00D0D"/>
<path d="M45.3143 32.6446C46.0954 33.4257 46.0954 34.692 45.3143 35.4731L42.9955 37.7918C42.6912 38.0962 42.2262 38.1716 41.8412 37.9791L37.6048 35.8609C37.1596 35.6384 36.9459 35.1224 37.1033 34.6503L37.9013 32.2561C35.3933 31.3068 32.6079 31.3068 30.0998 32.2561L30.8979 34.6503C31.0553 35.1224 30.8415 35.6384 30.3964 35.8609L26.16 37.9791C25.775 38.1716 25.31 38.0962 25.0057 37.7918L22.6869 35.4731C21.9058 34.692 21.9058 33.4257 22.6869 32.6446L23.394 31.9375C29.2519 26.0797 38.7493 26.0797 44.6072 31.9375L45.3143 32.6446Z" stroke="white" stroke-width="2" stroke-linecap="round" stroke-linejoin="round"/>
</svg>
