<svg width="58" height="65" viewBox="0 0 58 65" fill="none" xmlns="http://www.w3.org/2000/svg">
<g clip-path="url(#clip0_75_6966)">
<path d="M50.4636 47.8302C48.0724 48.608 45.7882 49.3557 43.5013 50.0924C41.0854 50.8716 38.6695 51.6509 36.2454 52.4068C35.5704 52.6181 34.9229 52.3464 34.5346 51.7785C33.138 49.7316 31.7442 47.6847 30.3504 45.6365C30.2488 45.487 30.0691 45.3224 30.0815 45.1783C30.102 44.9176 30.172 44.5623 30.3517 44.4443C30.4889 44.3538 30.9362 44.4869 31.0583 44.6556C31.7607 45.6255 32.4027 46.638 33.0722 47.6312C33.802 48.7137 34.5456 49.7865 35.27 50.873C35.5073 51.2283 35.7391 51.3902 36.2042 51.2325C37.5267 50.7811 38.8725 50.4011 40.1992 49.9662C44.3121 48.6176 48.4209 47.2512 52.5338 45.9013C53.4736 45.5926 54.4311 45.3361 55.375 45.037C56.2242 44.7681 56.3243 44.4786 55.8113 43.7131C54.7192 42.082 53.6162 40.4576 52.5064 38.8374C51.9837 38.0747 51.3979 37.3531 50.9205 36.5642C50.6351 36.0923 50.2565 35.8892 49.7695 35.7315C44.9006 34.1456 40.0359 32.5446 35.1698 30.9491C33.3699 30.3592 31.5809 29.7295 29.7604 29.2109C29.246 29.0641 28.6053 29.1341 28.0799 29.2932C26.4199 29.7967 24.7915 30.4072 23.1411 30.9436C19.4411 32.144 15.7356 33.3266 12.0315 34.5132C11.6268 34.6436 11.2207 34.7753 10.8092 34.8768C10.0217 35.073 9.85571 34.9248 9.87354 34.0166C15.8879 32.0534 21.9256 30.082 28.0717 28.075C27.3898 27.0282 26.767 26.0418 26.1112 25.076C25.225 23.77 24.3195 22.4763 23.4086 21.1853C23.1781 20.8588 22.9874 20.5735 22.425 20.7738C20.813 21.3472 19.1585 21.7986 17.5301 22.3254C14.0605 23.449 10.5965 24.5917 7.12839 25.7235C5.84567 26.142 4.55747 26.5426 3.27613 26.9651C2.39263 27.2573 2.33638 27.4288 2.84398 28.1916C4.21724 30.2494 5.60559 32.299 6.96651 34.3664C7.29576 34.8672 7.70047 35.1567 8.28078 35.3391C11.5445 36.3639 14.7959 37.4299 18.0486 38.4862C21.5607 39.6263 25.0713 40.7732 28.5875 41.9022C28.8248 41.9791 29.1266 41.9996 29.3599 41.9242C34.2314 40.3451 39.0962 38.7455 43.9636 37.1555C45.1187 36.7782 46.2821 36.427 47.44 36.0594C47.8488 35.9304 48.2316 35.9057 48.3715 36.4106C48.5059 36.8921 48.1479 37.0114 47.783 37.1322C44.939 38.0719 42.1033 39.0322 39.2567 39.9624C36.1356 40.9817 33.005 41.9681 29.8867 42.9943C29.5725 43.0971 29.2323 43.3249 29.0484 43.5938C27.4035 46.0124 25.7916 48.4557 24.1659 50.8867C23.9162 51.2599 23.672 51.6468 23.3647 51.9678C22.7515 52.6085 21.9777 52.555 21.2204 52.308C15.3885 50.4093 9.55938 48.4983 3.73022 46.5886C3.19381 46.413 2.66975 46.1949 2.12511 46.0522C0.622892 45.6598 0.473356 44.3277 1.14147 43.27C1.7451 42.3152 2.3844 41.3837 3.01684 40.4467C3.69455 39.4411 4.37089 38.4327 5.0733 37.445C5.26674 37.172 5.48487 36.733 5.93485 37.0608C6.3176 37.3407 6.25313 37.7084 6.00207 38.0801C4.77834 39.8883 3.56422 41.7033 2.34598 43.5156C2.23212 43.6843 2.07572 43.838 2.01262 44.0245C1.88366 44.4004 1.79723 44.7558 2.35559 44.93C5.08428 45.7806 7.80748 46.6449 10.5252 47.5284C12.0658 48.0291 13.5831 48.5998 15.1251 49.0992C17.3942 49.8345 19.6716 50.5438 21.9558 51.227C22.1478 51.2846 22.5251 51.1364 22.6445 50.9649C24.1494 48.7946 25.6228 46.6023 27.1058 44.4169C27.4186 43.956 27.741 43.5005 28.1101 42.9696C26.6847 42.488 25.3142 42.0092 23.9327 41.5606C20.7156 40.5153 17.493 39.485 14.2732 38.4464C11.9327 37.6919 9.58819 36.9456 7.25735 36.1609C6.92398 36.0484 6.57689 35.7918 6.37797 35.5037C4.81401 33.2442 3.28024 30.9628 1.74784 28.6813C0.993302 27.5578 1.3596 26.3917 2.61076 25.9815C8.99828 23.8948 15.3913 21.8219 21.7815 19.7421C22.4414 19.5281 23.0986 19.3607 23.7406 19.7805C23.8874 19.8766 24.052 19.9753 24.1467 20.1153C25.369 21.9262 26.5777 23.7467 27.7959 25.5603C27.9331 25.7647 28.1663 25.9225 28.2514 26.142C28.8276 27.6332 30.0636 28.1669 31.4808 28.5977C34.3878 29.4798 37.2564 30.4826 40.1456 31.4237C43.4396 32.4966 46.7403 33.5419 50.0287 34.6312C50.5555 34.8055 50.8409 34.7177 51.1427 34.254C52.4734 32.214 53.8412 30.1973 55.1925 28.1696C55.6658 27.4604 55.5986 27.2422 54.7837 26.9706C53.1196 26.4163 51.45 25.8758 49.7818 25.3312C45.2998 23.8674 40.8179 22.4049 36.3359 20.9411C35.045 20.52 35.045 20.5172 33.8885 22.2074C32.9597 23.5656 32.0117 24.9114 31.1159 26.2915C30.8456 26.7086 30.5369 26.8142 30.161 26.607C29.6973 26.3519 29.9278 26.0254 30.1487 25.6975C31.404 23.8276 32.6428 21.9454 33.8953 20.0727C34.1958 19.6241 35.0299 19.395 35.6925 19.6008C37.2441 20.0823 38.7875 20.5886 40.3336 21.0893C43.9719 22.2664 47.6101 23.4435 51.247 24.6247C52.6134 25.0678 53.9674 25.5466 55.3434 25.9581C56.5726 26.3258 57.0432 27.555 56.2777 28.6841C54.8605 30.7694 53.4708 32.8738 52.044 34.9522C51.7587 35.3679 51.7409 35.6629 52.0331 36.0909C53.6354 38.4314 55.1884 40.8075 56.7935 43.1465C57.5371 44.2303 57.4465 45.6859 55.7879 46.0961C54.5903 46.3924 53.4393 46.8726 52.2512 47.2183C51.6791 47.3843 51.4226 47.5983 51.4377 48.2733C51.4925 50.8113 51.4143 53.3506 51.4788 55.8886C51.5104 57.1233 50.6351 58.177 49.5143 58.5131C45.4988 59.7162 41.4832 60.9152 37.4663 62.1088C34.7884 62.9045 32.116 63.7235 29.4175 64.4465C28.8797 64.5905 28.2116 64.4314 27.6464 64.2654C25.1413 63.5314 22.6568 62.7303 20.1558 61.9812C16.7069 60.9495 13.2511 59.9453 9.79946 58.926C9.32479 58.7861 8.85286 58.6324 8.38367 58.4719C7.27518 58.0919 6.50555 57.0136 6.54259 55.8982C6.60982 53.8884 6.56317 51.8731 6.56043 49.8606C6.56043 49.5039 6.53025 49.1623 7.0598 49.1636C7.59209 49.165 7.55505 49.5135 7.55368 49.8661C7.5523 51.6276 7.55093 53.3877 7.55368 55.1492C7.55505 56.5801 8.01463 57.1563 9.41396 57.572C11.8203 58.2867 14.2197 59.0207 16.6219 59.7464C19.876 60.73 23.1287 61.7151 26.3842 62.6973C27.1539 62.9292 27.9194 63.1898 28.7041 63.3545C29.0553 63.4286 29.4669 63.3572 29.8222 63.2516C34.1875 61.9497 38.5474 60.6258 42.91 59.3156C44.9185 58.712 46.931 58.1235 48.9422 57.5281C49.764 57.2852 50.4431 56.4978 50.4554 55.5663C50.4869 53.0269 50.4636 50.4903 50.4636 47.8302Z" fill="#667085"/>
<path d="M12.3418 35.5297C14.0347 34.9686 15.5877 34.4487 17.1434 33.9397C20.9394 32.7009 24.7341 31.4593 28.5383 30.2493C28.8662 30.145 29.2929 30.1889 29.6303 30.2973C34.3977 31.8311 39.1567 33.3882 43.9186 34.937C44.4536 35.1113 44.9914 35.2759 45.6856 35.494C44.407 35.9275 43.2779 36.3227 42.1406 36.6917C38.6848 37.8125 35.2263 38.9224 31.7677 40.0391C30.9954 40.2888 30.2299 40.5645 29.4493 40.7868C29.1845 40.8622 28.8593 40.8773 28.6014 40.795C24.6312 39.5137 20.6692 38.209 16.703 36.9167C15.2982 36.4585 13.8865 36.0195 12.3418 35.5297Z" fill="#667085"/>
<path d="M29.9586 4.56639C31.9039 4.56639 33.7765 4.5513 35.6492 4.58011C36.0141 4.5856 36.4394 4.67203 36.7275 4.87644C37.5081 5.43068 37.3009 6.26754 36.2418 6.91095C36.3721 7.30057 36.5313 7.6943 36.6342 8.10175C37.1239 10.0457 35.8892 10.8291 34.4734 10.8867C32.0617 10.9841 30.3002 9.80427 29.0682 7.7821C28.7952 7.33349 28.6553 6.85608 28.0599 6.60502C27.3904 6.32241 27.5578 5.08634 28.2286 4.73651C28.4083 4.64185 28.5688 4.4539 28.6676 4.27144C29.6581 2.46054 31.0506 1.08042 33.107 0.657882C34.1867 0.437008 35.442 0.283356 36.2487 1.38224C36.545 1.78558 36.6781 2.35354 36.7398 2.86388C36.7618 3.04908 36.3941 3.39892 36.1458 3.473C35.7136 3.60196 35.6546 3.2535 35.6396 2.88857C35.6066 2.06544 35.1196 1.59488 34.1895 1.6429C32.5281 1.7307 30.757 2.66907 29.9586 4.56639ZM29.8419 6.8012C30.6953 8.4557 31.9286 9.36526 33.5227 9.74665C34.1757 9.90304 34.9399 9.91402 35.4324 9.31999C35.9427 8.70676 35.4736 8.10998 35.1909 7.56809C35.0346 7.26902 34.7286 6.8451 34.4734 6.83413C32.9781 6.76553 31.4786 6.8012 29.8419 6.8012Z" fill="#667085"/>
<path d="M29.7814 18.4567C29.4851 17.399 29.662 17.2454 30.5359 17.3057C31.4866 17.3716 32.4442 17.3318 33.3991 17.3249C33.8038 17.3222 34.1522 17.3935 34.1605 17.8806C34.1687 18.3621 33.8367 18.4636 33.4238 18.4609C32.2055 18.4526 30.9873 18.4567 29.7814 18.4567Z" fill="#667085"/>
<path d="M41.1553 15.1957C41.3158 14.9145 41.4406 14.6895 41.5723 14.4686C41.9715 13.8019 42.3776 13.1393 42.7741 12.4712C42.8413 12.3573 42.8358 12.168 42.9264 12.1062C43.1665 11.943 43.4408 11.8291 43.7015 11.696C43.7811 11.9677 43.9526 12.2517 43.9224 12.5109C43.7852 13.6949 43.006 14.5633 42.32 15.4578C42.1938 15.6224 41.7973 15.6265 41.5284 15.6155C41.4146 15.6114 41.3103 15.3796 41.1553 15.1957Z" fill="#667085"/>
<path d="M35.6504 17.6513C36.1182 17.3371 36.3981 17.0669 36.7314 16.942C37.6081 16.6114 38.5025 16.3164 39.4066 16.0695C39.6234 16.0105 39.9046 16.1916 40.157 16.2629C40.0747 16.54 40.061 17.0037 39.8978 17.0641C38.8085 17.4647 37.6945 17.8036 36.5709 18.0985C36.3816 18.1479 36.1113 17.8859 35.6504 17.6513Z" fill="#667085"/>
<path d="M41.344 5.68848C41.7254 5.94914 42.1534 6.11513 42.3866 6.42655C42.8791 7.0878 43.3058 7.80805 43.6748 8.54475C43.7585 8.71212 43.5637 9.13741 43.3744 9.27871C43.2633 9.3624 42.7406 9.17582 42.6912 9.0208C42.3798 8.03989 41.639 7.40745 40.9763 6.70093C40.8474 6.56237 40.7417 6.28388 40.7939 6.12611C40.8501 5.96148 41.1094 5.86408 41.344 5.68848Z" fill="#667085"/>
<path d="M23.7199 17.9956C24.9011 17.7734 26.0768 17.5319 27.2607 17.3494C27.4363 17.322 27.6558 17.5799 27.8547 17.7061C27.7011 17.9448 27.5913 18.3358 27.3856 18.3962C26.3772 18.6884 25.351 18.9408 24.3153 19.1082C23.6636 19.2138 23.7061 18.6678 23.7199 17.9956Z" fill="#667085"/>
<path d="M21.9578 23.8784C21.9578 24.22 21.9989 24.5685 21.9413 24.8991C21.9084 25.0898 21.7465 25.3546 21.5887 25.4026C21.4351 25.4479 21.0537 25.2695 21.0455 25.1666C20.9728 24.3284 20.9398 23.4847 20.9618 22.6451C20.9645 22.5326 21.3884 22.2953 21.5188 22.3502C21.7122 22.4311 21.8906 22.7041 21.9427 22.9277C22.0113 23.2295 21.9578 23.5602 21.9578 23.8784Z" fill="#667085"/>
<path d="M22.4827 26.802C22.5609 26.8898 22.8147 27.0475 22.8709 27.2588C23.0315 27.8583 23.9314 28.2274 23.4526 28.9833C23.3744 29.1081 22.7777 29.1013 22.6405 28.9531C22.2646 28.5443 21.9792 28.0422 21.7117 27.5469C21.5224 27.193 21.8599 26.791 22.4827 26.802Z" fill="#667085"/>
<path d="M29.8418 6.80108C31.4785 6.80108 32.9779 6.76541 34.4733 6.83538C34.7285 6.84773 35.0344 7.27027 35.1908 7.56934C35.4734 8.10987 35.9426 8.70664 35.4322 9.32124C34.9397 9.9139 34.1742 9.90293 33.5226 9.7479C31.9284 9.36514 30.6937 8.45421 29.8418 6.80108Z" fill="#646464"/>
</g>
<defs>
<clipPath id="clip0_75_6966">
<rect width="56.4766" height="64" fill="white" transform="translate(0.761719 0.5)"/>
</clipPath>
</defs>
</svg>
