<svg width="37" height="37" viewBox="0 0 37 37" fill="none" xmlns="http://www.w3.org/2000/svg">
<rect x="0.0585938" y="0.0588379" width="36" height="36" rx="18" fill="#F3F6FC"/>
<g clip-path="url(#clip0_34_6642)">
<path d="M16.9416 12.2255H19.7249C20.167 12.2255 20.5909 12.4011 20.9034 12.7136C21.216 13.0262 21.3916 13.4501 21.3916 13.8922V16.6755L22.2249 17.5088L27.2249 13.8922V22.2255M8.8916 8.89215L27.2249 27.2255M21.3916 21.3921V22.2255C21.3916 22.6675 21.216 23.0914 20.9034 23.404C20.5909 23.7166 20.167 23.8921 19.7249 23.8921H10.5583C10.1162 23.8921 9.69232 23.7166 9.37976 23.404C9.0672 23.0914 8.8916 22.6675 8.8916 22.2255V13.8922C8.8916 13.4501 9.0672 13.0262 9.37976 12.7136C9.69232 12.4011 10.1162 12.2255 10.5583 12.2255H12.2249L21.3916 21.3921Z" stroke="#667085" stroke-width="2" stroke-linecap="round" stroke-linejoin="round"/>
</g>
<defs>
<clipPath id="clip0_34_6642">
<rect width="20" height="20" fill="white" transform="translate(8.05859 8.05884)"/>
</clipPath>
</defs>
</svg>
