<svg width="37" height="37" viewBox="0 0 37 37" fill="none" xmlns="http://www.w3.org/2000/svg">
<rect x="0.941406" y="0.0588379" width="36" height="36" rx="18" fill="#F3F6FC"/>
<g clip-path="url(#clip0_34_6636)">
<path d="M9.77441 8.89217L28.1077 27.2255M21.4411 15.8422V11.3922C21.4417 10.7722 21.2119 10.1741 20.7964 9.714C20.3808 9.2539 19.8092 8.96462 19.1923 8.90231C18.5755 8.84 17.9575 9.00912 17.4583 9.37682C16.9592 9.74453 16.6145 10.2846 16.4911 10.8922M23.1077 22.1838C22.2942 23.0142 21.2512 23.5825 20.1124 23.816C18.9737 24.0495 17.7911 23.9373 16.7165 23.4941C15.6419 23.0508 14.7242 22.2966 14.0812 21.3281C13.4382 20.3597 13.0992 19.2213 13.1077 18.0588V16.3922M24.7744 16.3922V18.0588C24.7741 18.4025 24.7434 18.7455 24.6827 19.0838M18.9411 23.8922V27.2255M15.6077 27.2255H22.2744M16.4411 15.5588V18.0588C16.4415 18.553 16.5884 19.0359 16.8631 19.4466C17.1378 19.8573 17.5281 20.1774 17.9847 20.3665C18.4412 20.5555 18.9435 20.605 19.4282 20.5087C19.9129 20.4124 20.3581 20.1747 20.7077 19.8255L16.4411 15.5588Z" stroke="#667085" stroke-width="2" stroke-linecap="round" stroke-linejoin="round"/>
</g>
<defs>
<clipPath id="clip0_34_6636">
<rect width="20" height="20" fill="white" transform="translate(8.94141 8.05884)"/>
</clipPath>
</defs>
</svg>
