<svg width="41" height="40" viewBox="0 0 41 40" fill="none" xmlns="http://www.w3.org/2000/svg">
<rect x="0.956543" width="40" height="40" rx="20" fill="#004AB9"/>
<path d="M11.9565 13C11.9565 11.8954 12.852 11 13.9565 11H17.2358C17.6662 11 18.0484 11.2754 18.1845 11.6838L19.6823 16.1772C19.8397 16.6493 19.6259 17.1653 19.1808 17.3879L16.9235 18.5165C18.0258 20.9612 19.9953 22.9308 22.44 24.033L23.5687 21.7757C23.7912 21.3306 24.3072 21.1169 24.7793 21.2743L29.2728 22.7721C29.6811 22.9082 29.9565 23.2903 29.9565 23.7208V27C29.9565 28.1046 29.0611 29 27.9565 29H26.9565C18.6723 29 11.9565 22.2843 11.9565 14V13Z" stroke="white" stroke-width="2" stroke-linecap="round" stroke-linejoin="round"/>
</svg>
