<svg width="24" height="25" viewBox="0 0 24 25" fill="none" xmlns="http://www.w3.org/2000/svg">
<path fill-rule="evenodd" clip-rule="evenodd" d="M2 11.3008C2 6.54256 5.80575 2.7068 10.4739 2.7068C15.1421 2.7068 18.9479 6.54256 18.9479 11.3008C18.9479 13.6271 18.0382 15.7329 16.5629 17.2777C16.5279 17.3042 16.4942 17.3332 16.4622 17.3649C16.424 17.4026 16.3895 17.4426 16.3587 17.4845C14.8326 18.9779 12.7563 19.8948 10.4739 19.8948C5.80575 19.8948 2 16.0591 2 11.3008ZM17.1391 19.4736C15.3298 20.9854 13.0089 21.8948 10.4739 21.8948C4.67751 21.8948 0 17.1398 0 11.3008C0 5.46181 4.67751 0.706802 10.4739 0.706802C16.2704 0.706802 20.9479 5.46181 20.9479 11.3008C20.9479 13.8634 20.047 16.2172 18.5459 18.0519L23.0278 22.5906C23.4159 22.9835 23.4119 23.6167 23.0189 24.0047C22.6259 24.3928 21.9928 24.3888 21.6047 23.9958L17.1391 19.4736Z" fill="#494949"/>
</svg>
