<svg width="41" height="41" viewBox="0 0 41 41" fill="none" xmlns="http://www.w3.org/2000/svg">
<rect x="0.0585938" y="0.0588379" width="40" height="40" rx="20" fill="#F3F6FC"/>
<path d="M27.5586 13.3088H24.9617L23.6867 11.3963C23.6189 11.2917 23.5257 11.206 23.4159 11.147C23.3061 11.088 23.1832 11.0577 23.0586 11.0588H17.0586C16.934 11.0577 16.811 11.088 16.7012 11.147C16.5914 11.206 16.4983 11.2917 16.4305 11.3963L15.1555 13.3088H12.5586C11.9626 13.3113 11.3918 13.5491 10.9703 13.9705C10.5489 14.392 10.3111 14.9628 10.3086 15.5588V26.0588C10.3111 26.6548 10.5489 27.2256 10.9703 27.6471C11.3918 28.0685 11.9626 28.3063 12.5586 28.3088H27.5586C28.1546 28.3063 28.7254 28.0685 29.1469 27.6471C29.5683 27.2256 29.8061 26.6548 29.8086 26.0588V15.5588C29.8061 14.9628 29.5683 14.392 29.1469 13.9705C28.7254 13.5491 28.1546 13.3113 27.5586 13.3088ZM28.3086 26.0588C28.3086 26.2577 28.2296 26.4485 28.0889 26.5891C27.9483 26.7298 27.7575 26.8088 27.5586 26.8088H12.5586C12.3597 26.8088 12.1689 26.7298 12.0283 26.5891C11.8876 26.4485 11.8086 26.2577 11.8086 26.0588V15.5588C11.8086 15.3599 11.8876 15.1691 12.0283 15.0285C12.1689 14.8878 12.3597 14.8088 12.5586 14.8088H15.5586C15.6832 14.81 15.8061 14.7796 15.9159 14.7206C16.0257 14.6616 16.1189 14.5759 16.1867 14.4713L17.4617 12.5588H22.6555L23.9305 14.4713C23.9983 14.5759 24.0914 14.6616 24.2012 14.7206C24.311 14.7796 24.434 14.81 24.5586 14.8088H27.5586C27.7575 14.8088 27.9483 14.8878 28.0889 15.0285C28.2296 15.1691 28.3086 15.3599 28.3086 15.5588V26.0588ZM23.2367 22.5526C23.3073 22.6215 23.3634 22.7039 23.4017 22.7949C23.44 22.8859 23.4597 22.9836 23.4597 23.0822C23.4597 23.1809 23.44 23.2786 23.4017 23.3696C23.3634 23.4606 23.3073 23.543 23.2367 23.6119C22.8203 24.0309 22.3251 24.3633 21.7796 24.5902C21.2342 24.8171 20.6493 24.9339 20.0586 24.9339C19.4679 24.9339 18.883 24.8171 18.3375 24.5902C17.7921 24.3633 17.2969 24.0309 16.8805 23.6119H16.8711L16.4305 23.1526L16.2992 23.9307C16.2686 24.1054 16.1777 24.2639 16.0424 24.3786C15.9072 24.4933 15.736 24.5571 15.5586 24.5588H15.4367C15.3394 24.5429 15.2462 24.5079 15.1625 24.4559C15.0787 24.4039 15.006 24.336 14.9485 24.2558C14.891 24.1757 14.8499 24.0851 14.8275 23.9891C14.8051 23.8931 14.8019 23.7936 14.818 23.6963L15.193 21.4463C15.2197 21.2919 15.2935 21.1496 15.4043 21.0388C15.515 20.9281 15.6574 20.8543 15.8117 20.8276L18.0617 20.4526C18.2581 20.4202 18.4594 20.4673 18.6211 20.5833C18.7829 20.6993 18.8919 20.8749 18.9242 21.0713C18.9565 21.2677 18.9095 21.469 18.7935 21.6307C18.6774 21.7925 18.5019 21.9015 18.3055 21.9338L17.4617 22.0744L17.9398 22.5713C18.5045 23.1274 19.2661 23.4374 20.0586 23.4338C20.4527 23.4357 20.8432 23.3587 21.2071 23.2074C21.5709 23.056 21.9009 22.8334 22.1773 22.5526C22.3179 22.4123 22.5084 22.3335 22.707 22.3335C22.9056 22.3335 23.0961 22.4123 23.2367 22.5526ZM25.2992 17.1807L24.9242 19.4307C24.8975 19.585 24.8237 19.7274 24.7129 19.8381C24.6022 19.9489 24.4598 20.0227 24.3055 20.0494L22.0555 20.4244H21.9336C21.7562 20.4227 21.585 20.359 21.4498 20.2442C21.3145 20.1295 21.2236 19.971 21.193 19.7963C21.1769 19.699 21.1801 19.5996 21.2025 19.5035C21.2249 19.4075 21.266 19.3169 21.3235 19.2368C21.381 19.1567 21.4537 19.0887 21.5375 19.0367C21.6212 18.9847 21.7144 18.9497 21.8117 18.9338L22.6555 18.7932L22.1773 18.2963C21.6127 17.7403 20.851 17.4302 20.0586 17.4338C19.6645 17.4319 19.274 17.5089 18.9101 17.6602C18.5462 17.8116 18.2163 18.0342 17.9398 18.3151C17.7992 18.4553 17.6088 18.5341 17.4102 18.5341C17.2116 18.5341 17.0211 18.4553 16.8805 18.3151C16.8099 18.2461 16.7538 18.1637 16.7155 18.0727C16.6772 17.9818 16.6575 17.8841 16.6575 17.7854C16.6575 17.6867 16.6772 17.589 16.7155 17.498C16.7538 17.4071 16.8099 17.3247 16.8805 17.2557C17.2969 16.8367 17.7921 16.5043 18.3375 16.2774C18.883 16.0505 19.4679 15.9337 20.0586 15.9337C20.6493 15.9337 21.2342 16.0505 21.7796 16.2774C22.3251 16.5043 22.8203 16.8367 23.2367 17.2557C23.2461 17.2557 23.2461 17.2557 23.2461 17.2651L23.6867 17.7151L23.818 16.9369C23.8503 16.7405 23.9593 16.565 24.1211 16.4489C24.2828 16.3329 24.484 16.2859 24.6805 16.3182C24.8769 16.3505 25.0524 16.4595 25.1685 16.6213C25.2845 16.783 25.3315 16.9843 25.2992 17.1807Z" fill="#667085"/>
</svg>
