<svg width="4" height="18" viewBox="0 0 4 18" fill="none" xmlns="http://www.w3.org/2000/svg">
<path d="M2 2.29167L2 2.30125M2 9L2 9.00959M2 15.7083L2 15.7179M2 3.25C1.44772 3.25 1 2.82094 1 2.29167C1 1.7624 1.44772 1.33334 2 1.33334C2.55228 1.33334 3 1.7624 3 2.29167C3 2.82094 2.55228 3.25 2 3.25ZM2 9.95834C1.44771 9.95834 1 9.52928 1 9C1 8.47073 1.44771 8.04167 2 8.04167C2.55228 8.04167 3 8.47073 3 9C3 9.52928 2.55228 9.95834 2 9.95834ZM2 16.6667C1.44771 16.6667 0.999999 16.2376 0.999999 15.7083C0.999999 15.1791 1.44771 14.75 2 14.75C2.55228 14.75 3 15.1791 3 15.7083C3 16.2376 2.55228 16.6667 2 16.6667Z" stroke="#111827" stroke-width="2" stroke-linecap="round" stroke-linejoin="round"/>
</svg>
