<svg width="37" height="37" viewBox="0 0 37 37" fill="none" xmlns="http://www.w3.org/2000/svg">
<rect x="0.941406" y="0.0588379" width="36" height="36" rx="18" fill="#F3F6FC"/>
<path d="M14.7744 20.5588C16.1551 20.5588 17.2744 19.4395 17.2744 18.0588C17.2744 16.6781 16.1551 15.5588 14.7744 15.5588C13.3937 15.5588 12.2744 16.6781 12.2744 18.0588C12.2744 19.4395 13.3937 20.5588 14.7744 20.5588Z" stroke="#667085" stroke-width="2" stroke-linecap="round" stroke-linejoin="round"/>
<path d="M23.1074 20.5588C24.4881 20.5588 25.6074 19.4395 25.6074 18.0588C25.6074 16.6781 24.4881 15.5588 23.1074 15.5588C21.7267 15.5588 20.6074 16.6781 20.6074 18.0588C20.6074 19.4395 21.7267 20.5588 23.1074 20.5588Z" stroke="#667085" stroke-width="2" stroke-linecap="round" stroke-linejoin="round"/>
<path d="M14.7744 20.5588H23.1077" stroke="#667085" stroke-width="2" stroke-linecap="round" stroke-linejoin="round"/>
</svg>
