<svg width="133" height="26" viewBox="0 0 133 26" fill="none" xmlns="http://www.w3.org/2000/svg">
<path d="M10.656 20.916C11.424 20.916 12.06 20.88 12.564 20.808V25.2C11.508 25.392 10.284 25.488 8.892 25.488C8.268 25.488 7.716 25.452 7.236 25.38C6.756 25.308 6.216 25.152 5.616 24.912C5.016 24.648 4.524 24.3 4.14 23.868C3.756 23.436 3.42 22.812 3.132 21.996C2.868 21.18 2.736 20.22 2.736 19.116V12.204H0V7.848H2.736V2.7H8.244V7.848H12.168V12.204H8.244V17.964C8.244 19.14 8.448 19.932 8.856 20.34C9.264 20.724 9.864 20.916 10.656 20.916Z" fill="#1F494F"/>
<path d="M32.78 15.624C32.78 16.344 32.732 17.148 32.636 18.036H19.82C19.868 19.164 20.252 20.04 20.972 20.664C21.692 21.288 22.664 21.6 23.888 21.6C25.568 21.6 26.648 21.06 27.128 19.98H32.528C32.264 21.684 31.328 23.076 29.72 24.156C28.136 25.212 26.192 25.74 23.888 25.74C20.936 25.74 18.608 24.924 16.904 23.292C15.2 21.66 14.348 19.404 14.348 16.524C14.348 13.692 15.2 11.46 16.904 9.828C18.608 8.172 20.876 7.344 23.708 7.344C26.396 7.344 28.58 8.112 30.26 9.648C31.94 11.184 32.78 13.176 32.78 15.624ZM19.82 14.616H27.344C27.32 13.464 26.996 12.576 26.372 11.952C25.748 11.328 24.848 11.016 23.672 11.016C22.496 11.016 21.56 11.352 20.864 12.024C20.192 12.672 19.844 13.536 19.82 14.616Z" fill="#1F494F"/>
<path d="M35.9308 25.2V0H41.4388V25.2H35.9308Z" fill="#1F494F"/>
<path d="M63.0495 15.624C63.0495 16.344 63.0015 17.148 62.9055 18.036H50.0895C50.1375 19.164 50.5215 20.04 51.2415 20.664C51.9615 21.288 52.9335 21.6 54.1575 21.6C55.8375 21.6 56.9175 21.06 57.3975 19.98H62.7975C62.5335 21.684 61.5975 23.076 59.9895 24.156C58.4055 25.212 56.4615 25.74 54.1575 25.74C51.2055 25.74 48.8775 24.924 47.1735 23.292C45.4695 21.66 44.6175 19.404 44.6175 16.524C44.6175 13.692 45.4695 11.46 47.1735 9.828C48.8775 8.172 51.1455 7.344 53.9775 7.344C56.6655 7.344 58.8495 8.112 60.5295 9.648C62.2095 11.184 63.0495 13.176 63.0495 15.624ZM50.0895 14.616H57.6135C57.5895 13.464 57.2655 12.576 56.6415 11.952C56.0175 11.328 55.1175 11.016 53.9415 11.016C52.7655 11.016 51.8295 11.352 51.1335 12.024C50.4615 12.672 50.1135 13.536 50.0895 14.616Z" fill="#1F494F"/>
<path d="M66.4523 25.2V8.424H70.3763V10.764C70.7603 9.948 71.3723 9.288 72.2123 8.784C73.0523 8.256 74.0003 7.992 75.0563 7.992C77.7203 7.992 79.4843 8.988 80.3483 10.98C80.7563 10.116 81.4283 9.408 82.3643 8.856C83.3003 8.28 84.3443 7.992 85.4963 7.992C89.5283 7.992 91.5443 10.188 91.5443 14.58V25.2H87.6203V15.336C87.6203 12.672 86.5763 11.34 84.4883 11.34C83.3843 11.34 82.5203 11.712 81.8963 12.456C81.2723 13.176 80.9603 14.46 80.9603 16.308V25.2H77.0363V15.3C77.0363 12.66 76.0163 11.34 73.9763 11.34C72.8483 11.34 71.9604 11.712 71.3123 12.456C70.6883 13.176 70.3763 14.46 70.3763 16.308V25.2H66.4523Z" fill="black"/>
<path d="M111.597 15.948C111.597 16.38 111.561 17.1 111.489 18.108H99.0335C99.0815 19.428 99.5135 20.448 100.329 21.168C101.145 21.864 102.273 22.212 103.713 22.212C105.561 22.212 106.809 21.576 107.457 20.304H111.417C111.153 21.864 110.301 23.148 108.861 24.156C107.445 25.14 105.729 25.632 103.713 25.632C101.073 25.632 98.9855 24.84 97.4495 23.256C95.9135 21.672 95.1455 19.524 95.1455 16.812C95.1455 14.124 95.9015 11.988 97.4135 10.404C98.9495 8.796 101.001 7.992 103.569 7.992C105.969 7.992 107.901 8.736 109.365 10.224C110.853 11.688 111.597 13.596 111.597 15.948ZM99.0335 15.12H107.745C107.721 13.824 107.337 12.828 106.593 12.132C105.873 11.436 104.841 11.088 103.497 11.088C102.129 11.088 101.049 11.46 100.257 12.204C99.4655 12.948 99.0575 13.92 99.0335 15.12Z" fill="black"/>
<path d="M128.089 0H132.013V25.2H128.089V22.932C127.609 23.748 126.853 24.408 125.821 24.912C124.813 25.392 123.781 25.632 122.725 25.632C120.109 25.632 118.081 24.804 116.641 23.148C115.201 21.492 114.481 19.38 114.481 16.812C114.481 14.268 115.237 12.168 116.749 10.512C118.261 8.832 120.289 7.992 122.833 7.992C123.961 7.992 124.993 8.232 125.929 8.712C126.865 9.192 127.585 9.852 128.089 10.692V0ZM123.301 22.14C124.909 22.14 126.133 21.636 126.973 20.628C127.837 19.62 128.269 18.348 128.269 16.812C128.269 15.276 127.837 14.004 126.973 12.996C126.133 11.988 124.909 11.484 123.301 11.484C121.789 11.484 120.589 11.988 119.701 12.996C118.837 13.98 118.405 15.252 118.405 16.812C118.405 18.372 118.837 19.656 119.701 20.664C120.589 21.648 121.789 22.14 123.301 22.14Z" fill="black"/>
</svg>
